<svg id="Layer_1" data-name="Layer 1" xmlns="http://www.w3.org/2000/svg" viewBox="0 0 1080 1080"><defs><style>.cls-1{fill:#fdfdfd;}.cls-2{fill:#00a759;}.cls-3{fill:#fd0201;}.cls-4{fill:#e83535;}.cls-5{fill:#06a65a;}.cls-6{fill:#06a65b;}.cls-7{fill:#517e63;}.cls-8{fill:#05a65b;}.cls-9{fill:#507f63;}.cls-10{fill:#06a75b;}.cls-11{fill:#07a65c;}.cls-12{fill:#0ca660;}.cls-13{fill:#09a55e;}.cls-14{fill:#0da65e;}.cls-15{fill:#0ca55d;}.cls-16{fill:#0ba75e;}.cls-17{fill:#0ea55f;}.cls-18{fill:#10a560;}.cls-19{fill:#0ea560;}.cls-20{fill:#08a55d;}.cls-21{fill:#0ca45e;}.cls-22{fill:#0ea461;}.cls-23{fill:#11a662;}.cls-24{fill:#11a661;}.cls-25{fill:#12a765;}.cls-26{fill:#d13235;}.cls-27{fill:#fcfdfd;}.cls-28{fill:#a3564c;}.cls-29{fill:#a0584b;}.cls-30{fill:#d12d32;}</style></defs><path class="cls-1" d="M269,981.59c-3.86-4.81-22.59-8.28-29.44-5-6.56,3.16-2.45,9.74-3.22,14.72-.62,3.86-.13,7.88-.13,11.83h.1c0,7.58,0,15.18,0,22.78,0,3.71,2.34,4.46,5.35,4.66,3.24.2,5.32-.91,5.48-4.44a24.51,24.51,0,0,0,.08-3.63c-.84-7.26.2-12.17,9.63-11.62,5.46.31,10.52-2.64,13.35-8.06C274,995.51,274.32,988.29,269,981.59Zm-16.49,21.2c-8.35.56-4.45-5.8-5.59-9.45,1.3-3.22-2.61-9.32,5.1-8.94,6,.31,9.7,2.91,9.59,9.45C261.44,999.82,258.17,1002.4,252.46,1002.79Z"/><path class="cls-1" d="M318.94,1023.25c-1.79-4.51-3.32-9.3-6-13.23-2.61-3.76-2.14-5.65,1-8.64,4.61-4.33,5.49-10.11,3.13-16s-7.18-8.85-13.56-9c-4.55-.13-9.16.14-13.69-.26-6.14-.55-9,1.43-8.53,8.08.47,6.36.09,12.77.09,19.17h-.11c0,7.29.06,14.6,0,21.89-.05,4,2.07,5.21,5.72,5.19,3.35,0,5.17-1.33,5.23-4.77.05-3-.13-6.1.18-9.12.27-2.78-1.7-6.74,2.28-7.93,4.21-1.24,6.91,1.88,8.56,5.25,2.13,4.34,3.61,9,5.59,13.44s6.16,3.81,9.48,2.73C322.43,1028.71,319.84,1025.52,318.94,1023.25Zm-21.63-23.19c-6.25.28-5.3-4.36-5.71-8,.26-3.93-.58-8.35,5.8-7.89,5.08.36,9.3,1.82,9.48,7.53C307.1,997.83,302.81,999.82,297.31,1000.06Z"/><path class="cls-1" d="M655.17,313.9c-15.35,9.07-29.51,17.47-43.73,25.79-21.23,12.39-42.58,24.59-63.7,37.16-4.59,2.75-8.26,3.49-13.27.79-36.05-19.52-72.3-38.65-108.32-58.2-4.06-2.21-9.39-2.1-12.26-6.52a.79.79,0,0,1,0-.73c.14-.24.47-.37.71-.53,3.11-3.59,7.24-5.47,11.55-7Q477.79,273.84,529.38,243c3-1.81,5.57-1.84,8.38-.14Z"/><path class="cls-1" d="M864.84,420.44c-10.18-6.24-19.61-13.71-29.37-20.65,7.93-5.1,15.83-10.24,23.81-15.24,3.53-2.23,5.68-4.64,5.65-9.4-.19-45.64-.09-91.31-.11-136.95,0-3,.58-6.45-4.1-6.6-5.42-.62-8.24-5.46-12.64-7.88-38.3-21.05-76.44-42.41-114.59-63.71Q636.18,105.65,538.88,51.24c-4-2.24-7.73-4.4-12.65-1.51C493.56,69,460.78,88.08,428.05,107.21c-7,2.2-12.79,6.55-18.67,10.73C381.24,134.09,353,150,325,166.47c-36.86,21.68-74.53,41.91-110.62,64.89-5.92-.09-4.81,4.53-4.85,7.82-.38,44.32-.56,88.63-1,132.92,0,5,1.92,7.62,6,10,9.65,5.64,19,11.8,28.49,17.76-9.43,8.22-20.19,14.58-30.59,21.38-5.61,3.67-8.1,7.75-8,14.84.38,43.23.14,86.46.29,129.7,0,2.94-2,6.78,2.14,8.9Q258.13,606,309.49,637.27q109.85,66.68,219.63,133.41c5.39,3.29,9.41,3.38,14.75.07C572,753.3,600.33,736.18,628.62,719q119.07-72.54,238.19-145c3.33-2,5.21-4.42,5.17-8.74-.26-43.21-.31-86.43-.42-129.65C873.9,428.49,871.18,424.31,864.84,420.44ZM590.35,593c-16,9.4-31.9,18.83-47.67,28.51-4.57,2.8-8.15,2.19-12.52-.42-60.9-36.44-121.94-72.64-182.77-109.22-4.53-2.74-10.43-3.32-13.63-8.26a4.39,4.39,0,0,0,4.24.46c-.8-.48-1.59-1-2.37-1.46,11.76-6.22,22.8-13.63,33.84-21l.38.24c.44.18.88.38,1.3.59a4.22,4.22,0,0,0,.36-2.2q50.88,31.23,101.75,62.46,27.14,16.72,54.16,33.68c3.36,2.1,6.14,3,10,.71,36.91-21.82,73.91-43.45,110.84-65.2,1.48-.86,2.62-2.34,4.77-4.35l.08-.07-.1-.06L602.3,476.1Q470.1,394.28,337.91,312.5c-1.5-.95-3.18-1.63-4-3.18.4-.13.8-.28,1.19-.42q-.79-.36-1.59-.66,28.42-16,56.88-32.09c45.79-25.73,91.68-51.33,137.31-77.33,5.83-3.33,9.94-3,15.46.25q91.38,53.93,183,107.4a33.13,33.13,0,0,0,3.27,1.51c-.44.53-.89,1.06-1.37,1.56.33.18.68.32,1,.49a11,11,0,0,0,1.72.6c.36,2.41-2.54,3.36-4.63,4.59Q655.29,357.13,584.42,399c-3.35,2-9,4.2-9.12,6.6-.3,4.51,5.72,5.39,9.19,7.47,37,22.13,74.08,44,111,66.22,4.59,2.76,8.9,4.44,14.14,3.44.08.26.15.49.24.71a3.35,3.35,0,0,0,.37-.2l.11-.07c8.73,5.35,17.52,10.61,26.18,16.1,1.39.87,3.6,1.51,4.11,3.19-.25.15-.53.28-.78.41-.46.23-.9.47-1.35.71.6.49,1.18,1,1.75,1.53Q665.31,549.07,590.35,593Z"/><path class="cls-1" d="M322.12,880.22c.37,19.77-.12,39.58.32,59.35.14,7-2.2,9-8.9,8.55-5.7-.38-10.47.57-10.18-8.2.69-19.75.07-39.56.35-59.35.07-5.9-1-8.81-7.92-8.76q-56.62.48-113.24.11c-7.84,0-8.69,3.84-8.86,10.22-.14,7,2.87,8.88,9.28,8.79,19.19-.26,38.36-.13,57.55-.15,14.41,0,17.7,3.2,17.78,17.53,0,8.22.16,16.44-.08,24.65-.27,9.63-5.2,14.82-14.56,14.89-27.39.16-54.8-.09-82.19.2-9.6.11-5.38-6.6-6-10.8-.74-4.88-.56-8.57,6.66-8.42,22.82.47,45.66-.08,68.48.33,7.46.12,9.2-2.65,9.25-9.6s-2.06-9.68-9.28-9.57c-21.91.33-43.84-.06-65.75.22-6.82.09-10-1.68-9.61-9.23.55-11.53-.09-23.14.18-34.7.22-9.72,3.86-13.45,13.32-13.51,27.71-.18,55.41.28,83.11-.29,9.78-.2,5,7.42,8.51,13.16,2.47-16.76,14.13-12.87,23.85-12.94,22.53-.15,45.08.44,67.58-.25,10.3-.32,7.94,6.15,8.64,11.84.88,7.29-3.38,7.87-8.9,7.73-7-.19-14,.27-21-.13C324.17,871.5,322,873.79,322.12,880.22Z"/><path class="cls-1" d="M364.75,978c-9.37-4.92-23.51-3.45-30.9,3.22-8.31,7.49-11.07,26.44-5.61,38.44,3.73,8.23,12.83,12.54,24.71,11.77,14.82-1,23-11,23.19-28.3C375.66,993.21,375.06,983.4,364.75,978Zm-.53,25.13c.19,12.42-4.35,19-13,19.16-7.11.19-11.64-3.27-13.32-9.94a33.74,33.74,0,0,1,0-17.08c1.95-7.38,6.19-11.62,14.27-11,8.29.64,11.22,6.08,12,13.41A52.1,52.1,0,0,1,364.22,1003.1Z"/><path class="cls-1" d="M401,982.92c-.15,5.77,0,11.54,0,17.32h-.28c0,6.69.52,13.43-.1,20-.79,8.41-9.84,13.44-17.71,10.55-3-1.1-4.17-3.13-4.08-6.27.13-3.4,1.9-4,4.83-3.58,5.94.8,6.23-3.38,6.25-7.55,0-10,0-20.06-.06-30.09,0-3.82,0-7.22,5.48-7.31C400.59,975.94,401.07,978.8,401,982.92Z"/><path class="cls-1" d="M423.05,991.23c0,5.12,1.62,7.42,6.81,6.91a31.69,31.69,0,0,1,4.57,0c2.89.16,6.4-.75,6.4,4.15s-3.64,3.65-6.42,4.11c-4.42.69-10.85-3-11.34,6.08-.37,6.87,1.17,9.94,8.84,9.71,4.08-.11,12.13-4.1,11.93,4.33-.18,7.22-7.8,3.87-11.87,4-19.85.51-19.85.26-19.78-19.64,0-2.43,0-4.88,0-7.31,0-6.69.15-13.39,0-20.08-.15-5.48,2.21-7.6,7.69-7.29,6.38.33,12.77.07,19.17.12,2.46,0,4.89,0,5.08,3.59.2,3.83-1.94,4.67-5.08,4.64s-6.11.13-9.12-.13C424.77,983.92,423.05,986.1,423.05,991.23Z"/><path class="cls-1" d="M489,1020.08c1.3,3.27,0,6.31-3.38,8.48-10.93,7-28.67,1.67-33.26-10.5a37.54,37.54,0,0,1,.24-28.51,23.73,23.73,0,0,1,32-12.17c4,2,5.74,4.91,4.18,8.75-2.06,5.15-5.06.66-7.23-.16-11.88-4.52-19.68,2.45-19.52,17.7.17,15,7.79,21.13,20.41,16.71C484.45,1019.7,487.15,1015.35,489,1020.08Z"/><path class="cls-1" d="M533.22,980.39c0,3.51-1.79,5.12-5.19,4.5-10.2-1.92-10.36,4.28-10,11.66.4,9.12.16,18.25.23,27.39,0,3.67-.38,6.58-5.28,6.5-4.47,0-5.83-2.26-5.81-6.24,0-10.66-.2-21.31,0-32,.11-5.07-.55-8.1-6.87-7.26-3,.42-8.12,1.72-8.12-4.28s4.74-4.27,8.06-4.44c4.26-.18,8.54,0,12.79,0,4.86,0,9.74.07,14.62,0C530.71,976.12,533.2,976.56,533.22,980.39Z"/><path class="cls-1" d="M569.25,1007.51c5.54,12-3.62,23.92-18.27,23.94a22.91,22.91,0,0,1-9.78-1.72c-3.8-1.57-6.5-4.42-5.11-8.4,1.95-5.65,5.39-.75,8-.17,3.29.77,6.44,1.85,9.82.88a7.06,7.06,0,0,0,5.35-5.61c.58-2.85-1.22-4.66-3.33-5.94-2.83-1.74-5.92-3-8.82-4.66-9.74-5.37-12.87-14.07-8.22-22.71,3.85-7.2,17.1-10.42,25-6.2,3.09,1.67,4.81,4,3.62,7.38-1.57,4.37-4.22,1.32-6.63.66-4.37-1.17-9.67-3-11.94,2.45-2.34,5.67,2.78,7.93,6.93,9.89C561.07,999.76,566.6,1001.79,569.25,1007.51Z"/><path class="cls-1" d="M627.38,1025.24c.2,4-1.94,5.37-5.48,5.46l-2.74.06c-21,.63-21,.63-21.2-20.31-.07-9.41,0-18.82-.09-28.23-.08-4,1.06-6.27,5.59-6.21,4.33,0,5.87,2,5.76,6.14-.17,5.46-.06,10.93-.06,16.39h-.07v8.19c0,13.15,0,13.17,12.62,14.3C624.53,1021.29,627.18,1021.27,627.38,1025.24Z"/><path class="cls-1" d="M645.18,981.71q-.2,21.9-.08,43.8c0,4-1.77,5.41-5.55,5.32s-5.7-1.41-5.67-5.39c.1-7.6,0-15.21,0-22.81h0c0-7,.11-14,0-21-.09-3.76,1.22-5.55,5.19-5.64C643.15,975.92,645.21,977.31,645.18,981.71Z"/><path class="cls-1" d="M568.37,886.82Q562.9,897,557.44,907.14c-8.9,11.92-17.76,23.85-26.71,35.73-5,6.7-20.54,7.76-25.42,1.29-11.33-15-22.35-30.26-33.24-45.61-4.11-5.75-6.78-12.27-6.21-19.62.47-5.88-2.67-7.07-7.82-7-22.53.21-45.06.42-67.58,0-8-.17-8.66,3.61-8.69,10,0,6.23.76,9.39,8.27,9.13,16.72-.58,33.5.22,50.22-.34,8.28-.3,7.6,4.46,7.58,9.81s.86,10.12-7.53,9.81c-16.41-.62-32.87,0-49.3-.33-6-.11-9.77.1-9.39,7.93.36,7.11,1.24,11.44,10,11.28,22.21-.46,44.44,0,66.67-.28,6.13-.09,9.11,1.25,8.2,8-.71,5.22,2.23,11.42-7.82,11.18-26.77-.62-53.58-.09-80.37-.22-12.2,0-14.82-2.78-15.31-15.16-.18-4.87-.07-9.74-.05-14.62,0-4,.31-7.39-5.56-8.37-6.74-1.15-3.12-7.46-3.62-11.46-.36-2.92-1.19-7.45,4.13-7.35s4.86-3.17,4.94-6.65c.12-7,.16-14,.69-20.92.51-6.78,4.57-10.49,11.4-10.51,34.7-.12,69.4-.07,104.11-.25,4.69,0,6.08,2.17,5.39,6.08-3.62,20.12,5.28,35.73,17.48,50.4,4.44,5.34,8.12,11.35,11.88,17.21,2.69,4.21,4.57,3.82,7.24-.11,8.35-12.31,16.88-24.52,25.47-36.67,6-8.57,3.6-18.27,3.45-27.47-.12-7.54,1.94-9.73,9.63-9.7s10.07,2.36,9.38,9.85C568.21,870.36,568.52,878.6,568.37,886.82Z"/><path class="cls-1" d="M685.67,942.37c0,8.92-6.58,4.85-10.51,5.43-4.09.64-8.72,1.32-8.35-5.72.4-8.2-.15-16.44.16-24.65.2-5.44-1.6-7.49-7.29-7.42-17.34.22-34.7.11-52-.22-5.48-.11-6.71,2.29-6.56,7.13.27,8.2-.16,16.45.22,24.63.24,5.52-2.28,7.37-7,6.31-4.41-1-11.74,3.94-12.16-5.94-.43-10.27,1.43-20.62-1-30.83-4.59-3.84-11,.68-15.7-3.14,1.78-4.64,3.42-9,5.08-13.36.75-.93,1.54-2.69,2.27-2.67,11.68.29,9.39-8.08,9.47-15,.07-4.86.78-9.81.18-14.58-1.08-8.34,2.3-10.2,10.16-10,6.63.2,9.72,1.61,8.68,8.64a48,48,0,0,0,0,7.29c.16,22.42.16,22.44,22.16,22.5,11.57,0,23.16-.41,34.7.07,6.69.27,9.43-1.55,9-8.61-.55-7.87.18-15.82-.24-23.72-.35-7,4.28-6.32,8.41-5.81s10.47-3.12,10.43,5.61Q685.46,900.38,685.67,942.37Z"/><path class="cls-1" d="M718.58,981.62c.07,14.62,0,29.22.15,43.82,0,3.94-1.78,5.35-5.59,5.26-4.15-.09-5-2.45-5-6,0-10.74,0-21.49-2.18-32.58-3.67,10.44-7.29,20.89-11.05,31.3-1.3,3.62-2.07,7.68-7.68,7.31-5.13-.33-6.48-3.82-7.76-7.63-3.53-10.59-7-21.2-10.45-31.82l-2,.11c0,10.34,0,20.67,0,31,0,4,.51,8.21-5.72,8-5.83-.14-4.9-4.2-4.92-7.73q-.08-18.72,0-37.42c0-3.76-1.24-8.7,4.75-9,5.54-.27,12-2,14.82,5.44,3.29,8.81,6.38,17.73,9.58,26.57.49,1.37,1.15,2.69,2.5,5.78,4-11.06,8-20.39,10.85-30,2.67-9,9.12-8.32,15.94-7.68C718,976.7,718.58,979.06,718.58,981.62Z"/><path class="cls-1" d="M741.28,982.88c-.13,7,0,13.92,0,20.89h-.15c0,7-.16,13.92.08,20.88.12,4.31-1.67,6-5.83,6-4,0-5.3-2.08-5.28-5.7q0-21.32,0-42.67c0-4.38,1.65-6.65,6.55-6.34S741.35,979.35,741.28,982.88Z"/><path class="cls-1" d="M788.38,980.67c-.16,3.27-2.08,4.46-4.71,4-9.83-1.61-10.8,3.78-10.32,11.62.54,9.06.09,18.2.16,27.3,0,3.91,0,7.35-5.57,7.09-5.17-.26-5.65-3.38-5.56-7.4.13-5.46,0-10.93,0-16.39h.05c0-3-.2-6.09,0-9.1.6-7.77.79-14.93-10.58-13.12-2.89.46-4.26-1.34-4.31-4.39-.06-3.49,2-4,4.68-4,10.32,0,20.63,0,31,0C786.21,976.25,788.6,976.68,788.38,980.67Z"/><path class="cls-1" d="M813.14,869.06c-.07-11.11-5.19-16.17-16.23-16.35-12.15-.19-24.3,0-36.47,0s-24.32-.13-36.47.07c-9.71.15-13.78,4.15-14.24,13.87-.29,6.07,0,12.15-.13,18.24-.05,2.25.61,5.88-2.81,5.63-8-.57-9.12,5.85-11.6,10.69-4.22,8.24-3.73,9.32,5.74,8.77,6.94-.38,9.22,1.83,8.84,8.59-.42,7.56.31,15.2-.17,22.78-.49,8.17,4.94,6.64,9.65,6.6s10.11,1.52,9.6-6.67,0-16.41-.19-24.61c-.11-4.33.84-6.78,6-6.71,17.92.27,35.85.29,53.79.18,4.77,0,6.4,1.81,6.25,6.47-.25,8.21.39,16.45-.2,24.62s4.79,6.76,9.45,6.72,9.61,1.44,9.43-6.8C812.87,917.1,813.31,893.07,813.14,869.06ZM787.89,891c-8.81-.27-17.65-.07-26.46-.07v-.11c-8.54,0-17.07-.3-25.57.09-5.68.27-7.85-1.9-7.14-7.35.62-4.62-2.29-11.38,6.27-11.45q26.47-.23,52.93,0c9,.07,6,7.21,6.71,12.15C795.4,889.58,792.91,891.14,787.89,891Z"/><path class="cls-1" d="M805.56,991.08c-.07,7.86,4.28,7.26,9.3,7.11,1.81,0,3.64,0,5.47.17,2.32.2,2.85,1.79,2.81,3.83s-.46,3.73-2.8,3.91a37.8,37.8,0,0,1-7.29.11c-6.43-.71-7.36,2.67-7.42,8.17s1.34,8.21,7.11,7.48a2.2,2.2,0,0,1,.92,0c4.25,1.37,12.5-3.47,12.07,4.66-.4,7.51-8.36,3.57-12.77,3.7-18.14.45-18.16.18-18.07-18.35,0-3,0-6.09,0-9.12,0-6.71.22-13.41-.07-20.1-.22-4.59,1.11-6.71,6.07-6.49,6.68.31,13.39.11,20.1.08,2.63,0,4.84.42,5.08,3.76.27,4-2.29,4.39-5.29,4.39-1.82,0-3.65,0-5.48,0C810.71,984.62,805.63,982.82,805.56,991.08Z"/><path class="cls-1" d="M878.1,989.88c-4.57-11.36-19.62-17.59-37.17-13.37-10.25,2.48-3.25,12.33-5,18.62-.71,2.54-.11,5.44-.11,8.17h-.11c0,4,0,7.91,0,11.86-.06,15.75-.06,15.75,15.91,15.27C875.42,1029.74,887,1012,878.1,989.88Zm-23,31.64c-6.42,1-9.05-1.06-8.45-7.61.33-3.6.06-7.23.06-10.87h0c0-2.1-.35-4.29.09-6.32.84-4.08-2.85-10.22,2.89-11.88,6.39-1.86,12.55.68,16.57,6.58C874.05,1002.75,867.67,1019.52,855.1,1021.52Z"/><path class="cls-1" d="M924.81,867.93c-.11-11.81-3.62-15.17-15.48-15.22-26.77-.11-53.54.16-80.31-.19-6.16-.07-7.89,2-7.86,7.77.19,26.77.26,53.54-.07,80.29-.09,6.38,2.39,7.57,8,7.44,13.67-.33,27.37-.11,41.06-.11,13.08,0,26.17.07,39.25,0,11.95-.11,15.19-3.14,15.31-15.14Q925.08,900.33,924.81,867.93Zm-26.22,61.12c-8.81,0-17.64,0-26.44,0-8.52,0-17-.18-25.55.06-4.73.15-6.41-1.68-6.36-6.34.2-14.89.18-29.81.07-44.7,0-4.18,1.52-6,5.85-6,17.63.11,35.27,0,52.9,0,4.41,0,7,1.81,7,6.42.06,14.58,0,29.18.11,43.76C906.15,927.39,903.26,929.07,898.59,929.05Z"/><path class="cls-2" d="M872,565.23c0,4.32-1.84,6.71-5.17,8.74Q747.68,646.43,628.62,719c-28.29,17.21-56.63,34.33-84.75,51.78-5.34,3.31-9.36,3.22-14.75-.07Q419.43,703.77,309.49,637.27,258.1,606.07,206.8,574.7c-1.46-2.56-.77-5.36-.77-8q-.08-64.83,0-129.65c0-2.61-1.28-6,.75-7.95a1,1,0,0,1,.15-.13,4,4,0,0,1,.58-.42c3.62-2.1,7.2.57,10,2.67,12.2,9.16,25.49,16.61,38.59,24.21,22.53,13.07,44.17,27.69,67.46,39.44a45.17,45.17,0,0,1,9.12,6c1,.62,2,1.22,2.95,1.83.78.49,1.57,1,2.37,1.46a4.39,4.39,0,0,1-4.24-.46c3.2,4.94,9.1,5.52,13.63,8.26,60.83,36.58,121.87,72.78,182.77,109.22,4.37,2.61,8,3.22,12.52.42,15.77-9.68,31.7-19.11,47.67-28.51q74.91-44,149.9-87.93c-.57-.53-1.15-1-1.75-1.53.45-.24.89-.48,1.35-.71.25-.13.53-.26.78-.41,22.73-11.14,43.24-26.22,66.12-37.27,8.11-3.93,15.4-10.4,23.4-15.3,11.42-7,22.81-14,34.27-20.94,6.74-4.07,5.66,3.36,7.14,6.63C871.67,478.8,871.72,522,872,565.23Z"/><path class="cls-3" d="M854.66,241.74c-14,9.58-29,17.65-43.6,26.24-22.75,13.36-45.25,27.16-68.2,40.17-3.93,2.23-7.82,3.63-12.09,2.48a11,11,0,0,1-1.72-.6c-.33-.17-.68-.31-1-.49.48-.5.93-1,1.37-1.56a33.13,33.13,0,0,1-3.27-1.51q-91.54-53.62-183-107.4c-5.52-3.25-9.63-3.58-15.46-.25-45.63,26-91.52,51.6-137.31,77.33q-28.46,16-56.88,32.09.79.3,1.59.66c-.39.14-.79.29-1.19.42s-.64.23-1,.34c-4.35.73-7.55-1.9-10.84-3.94-26.22-16.38-52.55-32.58-78.61-49.2-8.68-5.51-18.47-9.26-26.16-16.37-2.6-2.39-6.47-4.35-3-8.79,36.09-23,73.76-43.21,110.62-64.89,28-16.44,56.27-32.38,84.41-48.53,6.59-2.94,13.39-5.52,18.67-10.73,32.73-19.13,65.51-38.2,98.18-57.48,4.92-2.89,8.61-.73,12.65,1.51Q636.18,105.66,733.49,160c38.15,21.3,76.29,42.66,114.59,63.71,4.4,2.42,7.22,7.26,12.64,7.88C863.39,237.76,858,239.44,854.66,241.74Z"/><path class="cls-4" d="M653,507.56c-2.15,2-3.29,3.49-4.77,4.35-36.93,21.75-73.93,43.38-110.84,65.2-3.84,2.28-6.62,1.39-10-.71q-27-17-54.16-33.68-50.85-31.28-101.75-62.46a4.22,4.22,0,0,1-.36,2.2c-.42-.21-.86-.41-1.3-.59l-.38-.24c-22.68-14.78-46.56-27.61-68.56-43.45-5.89-4.22-12.12-7.89-18.26-11.73-.27-.48-.57-.93-.86-1.35a14.87,14.87,0,0,0-2.37-2.71s0,0-.06,0a10.41,10.41,0,0,0-2.9-1.86,10.57,10.57,0,0,0-3.09-.82,10.2,10.2,0,0,0-1.48-.11C261.07,414.73,251,408.83,243,399.88c-9.49-6-18.84-12.12-28.49-17.76-4.11-2.4-6.08-5-6-10,.46-44.29.64-88.6,1-132.92,0-3.29-1.07-7.91,4.85-7.82.09,8.08,7.62,10,12.37,12.76,34.19,19.84,67,41.88,100.86,62.27,2,1.19,3.95,1.21,5.91,1.85q.79.3,1.59.66c-.39.14-.79.29-1.19.42.84,1.55,2.52,2.23,4,3.18Q470.14,394.25,602.3,476.1L653,507.43S653,507.53,653,507.56Z"/><path class="cls-4" d="M864.93,375.15c0,4.76-2.12,7.17-5.65,9.4-8,5-15.88,10.14-23.81,15.24-3.09,5.68-8.7,8.29-13.87,11.45-19.62,12-38,26-58.51,36.62-.55.13-1.1.3-1.63.48a15.47,15.47,0,0,0-2.61,1.1,17.62,17.62,0,0,0-3.43,2.21,18.74,18.74,0,0,0-2.54,2.5c-.33.37-.64.75-.94,1.15-14.21,8.79-27.44,19-41.6,27.87l-.11.07a3.35,3.35,0,0,1-.37.2c-.09-.22-.16-.45-.24-.71-5.24,1-9.55-.68-14.14-3.44-36.91-22.2-74-44.09-111-66.22-3.47-2.08-9.49-3-9.19-7.47.14-2.4,5.77-4.61,9.12-6.6q70.82-41.94,141.72-83.78c2.09-1.23,5-2.18,4.63-4.59a11,11,0,0,1-1.72-.6c-.33-.17-.68-.31-1-.49.48-.5.93-1,1.37-1.56,7,3.44,12.54-1.37,17.34-4.53,25.79-16.94,53.73-30.24,79.13-47.84,7.85-5.46,16.94-9.15,25.12-14.2,3.88-2.37,9.45-3.65,9.72-9.81,4.68.15,4.1,3.62,4.1,6.6C864.84,283.84,864.74,329.51,864.93,375.15Z"/><path class="cls-5" d="M568.94,862.19c-.73,8.17-.42,16.41-.57,24.63Q562.9,897,557.44,907.14c-8.9,11.92-17.76,23.85-26.71,35.73-5,6.7-20.54,7.76-25.42,1.29-11.33-15-22.35-30.26-33.24-45.61-4.11-5.75-6.78-12.27-6.21-19.62.47-5.88-2.67-7.07-7.82-7-22.53.21-45.06.42-67.58,0-8-.17-8.66,3.61-8.69,10,0,6.23.76,9.39,8.27,9.13,16.72-.58,33.5.22,50.22-.34,8.28-.3,7.6,4.46,7.58,9.81s.86,10.12-7.53,9.81c-16.41-.62-32.87,0-49.3-.33-6-.11-9.77.1-9.39,7.93.36,7.11,1.24,11.44,10,11.28,22.21-.46,44.44,0,66.67-.28,6.13-.09,9.11,1.25,8.2,8-.71,5.22,2.23,11.42-7.82,11.18-26.77-.62-53.58-.09-80.37-.22-12.2,0-14.82-2.78-15.31-15.16-.18-4.87-.07-9.74-.05-14.62,0-4,.31-7.39-5.56-8.37-6.74-1.15-3.12-7.46-3.62-11.46-.36-2.92-1.19-7.45,4.13-7.35s4.86-3.17,4.94-6.65c.12-7,.16-14,.69-20.92.51-6.78,4.57-10.49,11.4-10.51,34.7-.12,69.4-.07,104.11-.25,4.69,0,6.08,2.17,5.39,6.08-3.62,20.12,5.28,35.73,17.48,50.4,4.44,5.34,8.12,11.35,11.88,17.21,2.69,4.21,4.57,3.82,7.24-.11,8.35-12.31,16.88-24.52,25.47-36.67,6-8.57,3.6-18.27,3.45-27.47-.12-7.54,1.94-9.73,9.63-9.7S569.63,854.7,568.94,862.19Z"/><path class="cls-6" d="M351.49,872c-7-.19-14,.27-21-.13-6.32-.39-8.47,1.9-8.37,8.33.37,19.77-.12,39.58.32,59.35.14,7-2.2,9-8.9,8.55-5.7-.38-10.47.57-10.18-8.2.69-19.75.07-39.56.35-59.35.07-5.9-1-8.81-7.92-8.76q-56.62.48-113.24.11c-7.84,0-8.69,3.84-8.86,10.22-.14,7,2.87,8.88,9.28,8.79,19.19-.26,38.36-.13,57.55-.15,14.41,0,17.7,3.2,17.78,17.53,0,8.22.16,16.44-.08,24.65-.27,9.63-5.2,14.82-14.56,14.89-27.39.16-54.8-.09-82.19.2-9.6.11-5.38-6.6-6-10.8-.74-4.88-.56-8.57,6.66-8.42,22.82.47,45.66-.08,68.48.33,7.46.12,9.2-2.65,9.25-9.6s-2.06-9.68-9.28-9.57c-21.91.33-43.84-.06-65.75.22-6.82.09-10-1.68-9.61-9.23.55-11.53-.09-23.14.18-34.7.22-9.72,3.86-13.45,13.32-13.51,27.71-.18,55.41.28,83.11-.29,9.78-.2,5,7.42,8.51,13.16,2.47-16.76,14.13-12.87,23.85-12.94,22.53-.15,45.08.44,67.58-.25,10.3-.32,7.94,6.15,8.64,11.84C361.27,871.58,357,872.16,351.49,872Z"/><path class="cls-7" d="M371.51,480.26a4.22,4.22,0,0,1-.36,2.2c-.42-.21-.86-.41-1.3-.59l-.38-.24c-11,7.39-22.08,14.8-33.84,21,.78.49,1.57,1,2.37,1.46a4.39,4.39,0,0,1-4.24-.46c-8.22-5.37-16.9-11.4-25.51-14.49-16.54-5.94-28.27-19-44.48-25.51-11.51-4.64-22.2-13.45-33.2-20.45-7.34-4.69-14.1-10.45-23.62-14.27l-.15-.07V574.7c-4.11-2.12-2.14-6-2.14-8.9-.15-43.24.09-86.47-.29-129.7-.06-7.09,2.43-11.17,8-14.84,10.4-6.8,21.16-13.16,30.59-21.38l29.55,17.89c1.26,1,2.57,1.86,3.91,2.72l2.9,1.86s0,0,.06,0c1.37.86,2.74,1.76,4,2.72,16,7.88,30,19.17,45.2,28.31,10.4,6.25,20.45,13.08,31.12,18.8C364.09,474.52,366.89,478.65,371.51,480.26Z"/><path class="cls-8" d="M813.14,869.06c-.07-11.11-5.19-16.17-16.23-16.35-12.15-.19-24.3,0-36.47,0s-24.32-.13-36.47.07c-9.71.15-13.78,4.15-14.24,13.87-.29,6.07,0,12.15-.13,18.24-.05,2.25.61,5.88-2.81,5.63-8-.57-9.12,5.85-11.6,10.69-4.22,8.24-3.73,9.32,5.74,8.77,6.94-.38,9.22,1.83,8.84,8.59-.42,7.56.31,15.2-.17,22.78-.49,8.17,4.94,6.64,9.65,6.6s10.11,1.52,9.6-6.67,0-16.41-.19-24.61c-.11-4.33.84-6.78,6-6.71,17.92.27,35.85.29,53.79.18,4.77,0,6.4,1.81,6.25,6.47-.25,8.21.39,16.45-.2,24.62s4.79,6.76,9.45,6.72,9.61,1.44,9.43-6.8C812.87,917.1,813.31,893.07,813.14,869.06ZM787.89,891c-8.81-.27-17.65-.07-26.46-.07v-.11c-8.54,0-17.07-.3-25.57.09-5.68.27-7.85-1.9-7.14-7.35.62-4.62-2.29-11.38,6.27-11.45q26.47-.23,52.93,0c9,.07,6,7.21,6.71,12.15C795.4,889.58,792.91,891.14,787.89,891Z"/><path class="cls-9" d="M871.56,435.58c-2.47-1.24-2.92-13.59-8-1.26-1.44,3.51-6.76.55-9.81,3.33-13.12,12-30.9,16.77-44.2,28.82-5.74,5.19-14.13,7.4-21.25,11.11-16.39,8.53-30.67,20.77-48.08,27.53-.57-.53-1.15-1-1.75-1.53.45-.24.89-.48,1.35-.71.25-.13.53-.26.78-.41-.51-1.68-2.72-2.32-4.11-3.19-8.66-5.49-17.45-10.75-26.18-16.1l-.11.07a3.35,3.35,0,0,1-.37.2c-.09-.22-.16-.45-.24-.71,12.36-11.73,27-20.25,41.52-28.8,1.44-.73,2.89-1.46,4.28-2.28a30.32,30.32,0,0,0,3.43-2.21,22.47,22.47,0,0,0,3.16-2.78c8.7-5.48,17.62-10.66,26-16.52,14.73-10.27,30.83-18.46,44.81-29.82.62-.51,1.73-.37,2.61-.53,9.76,6.94,19.19,14.41,29.37,20.65C871.18,424.31,873.9,428.49,871.56,435.58Z"/><path class="cls-10" d="M924.81,867.93c-.11-11.81-3.62-15.17-15.48-15.22-26.77-.11-53.54.16-80.31-.19-6.16-.07-7.89,2-7.86,7.77.19,26.77.26,53.54-.07,80.29-.09,6.38,2.39,7.57,8,7.44,13.67-.33,27.37-.11,41.06-.11,13.08,0,26.17.07,39.25,0,11.95-.11,15.19-3.14,15.31-15.14Q925.08,900.33,924.81,867.93Zm-26.22,61.12c-8.81,0-17.64,0-26.44,0-8.52,0-17-.18-25.55.06-4.73.15-6.41-1.68-6.36-6.34.2-14.89.18-29.81.07-44.7,0-4.18,1.52-6,5.85-6,17.63.11,35.27,0,52.9,0,4.41,0,7,1.81,7,6.42.06,14.58,0,29.18.11,43.76C906.15,927.39,903.26,929.07,898.59,929.05Z"/><path class="cls-11" d="M685.67,942.37c0,8.92-6.58,4.85-10.51,5.43-4.09.64-8.72,1.32-8.35-5.72.4-8.2-.15-16.44.16-24.65.2-5.44-1.6-7.49-7.29-7.42-17.34.22-34.7.11-52-.22-5.48-.11-6.71,2.29-6.56,7.13.27,8.2-.16,16.45.22,24.63.24,5.52-2.28,7.37-7,6.31-4.41-1-11.74,3.94-12.16-5.94-.43-10.27,1.43-20.62-1-30.83-4.59-3.84-11,.68-15.7-3.14,1.78-4.64,3.42-9,5.08-13.36.75-.93,1.54-2.69,2.27-2.67,11.68.29,9.39-8.08,9.47-15,.07-4.86.78-9.81.18-14.58-1.08-8.34,2.3-10.2,10.16-10,6.63.2,9.72,1.61,8.68,8.64a48,48,0,0,0,0,7.29c.16,22.42.16,22.44,22.16,22.5,11.57,0,23.16-.41,34.7.07,6.69.27,9.43-1.55,9-8.61-.55-7.87.18-15.82-.24-23.72-.35-7,4.28-6.32,8.41-5.81s10.47-3.12,10.43,5.61Q685.46,900.38,685.67,942.37Z"/><path class="cls-12" d="M718.73,1025.44c0,3.94-1.78,5.35-5.59,5.26-4.15-.09-5-2.45-5-6,0-10.74,0-21.49-2.18-32.58-3.67,10.44-7.29,20.89-11.05,31.3-1.3,3.62-2.07,7.68-7.68,7.31-5.13-.33-6.48-3.82-7.76-7.63-3.53-10.59-7-21.2-10.45-31.82l-2,.11c0,10.34,0,20.67,0,31,0,4,.51,8.21-5.72,8-5.83-.14-4.9-4.2-4.92-7.73q-.08-18.72,0-37.42c0-3.76-1.24-8.7,4.75-9,5.54-.27,12-2,14.82,5.44,3.29,8.81,6.38,17.73,9.58,26.57.49,1.37,1.15,2.69,2.5,5.78,4-11.06,8-20.39,10.85-30,2.67-9,9.12-8.32,15.94-7.68,3.23.31,3.78,2.67,3.78,5.23C718.65,996.24,718.62,1010.84,718.73,1025.44Z"/><path class="cls-13" d="M364.75,978c-9.37-4.92-23.51-3.45-30.9,3.22-8.31,7.49-11.07,26.44-5.61,38.44,3.73,8.23,12.83,12.54,24.71,11.77,14.82-1,23-11,23.19-28.3C375.66,993.21,375.06,983.4,364.75,978Zm-.53,25.13c.19,12.42-4.35,19-13,19.16-7.11.19-11.64-3.27-13.32-9.94a33.74,33.74,0,0,1,0-17.08c1.95-7.38,6.19-11.62,14.27-11,8.29.64,11.22,6.08,12,13.41A52.1,52.1,0,0,1,364.22,1003.1Z"/><path class="cls-14" d="M878.1,989.88c-4.57-11.36-19.62-17.59-37.17-13.37-10.25,2.48-3.25,12.33-5,18.62-.71,2.54-.11,5.44-.11,8.17h-.11c0,4,0,7.91,0,11.86-.06,15.75-.06,15.75,15.91,15.27C875.42,1029.74,887,1012,878.1,989.88Zm-23,31.64c-6.42,1-9.05-1.06-8.45-7.61.33-3.6.06-7.23.06-10.87h0c0-2.1-.35-4.29.09-6.32.84-4.08-2.85-10.22,2.89-11.88,6.39-1.86,12.55.68,16.57,6.58C874.05,1002.75,867.67,1019.52,855.1,1021.52Z"/><path class="cls-15" d="M318.94,1023.25c-1.79-4.51-3.32-9.3-6-13.23-2.61-3.76-2.14-5.65,1-8.64,4.61-4.33,5.49-10.11,3.13-16s-7.18-8.85-13.56-9c-4.55-.13-9.16.14-13.69-.26-6.14-.55-9,1.43-8.53,8.08.47,6.36.09,12.77.09,19.17h-.11c0,7.29.06,14.6,0,21.89-.05,4,2.07,5.21,5.72,5.19,3.35,0,5.17-1.33,5.23-4.77.05-3-.13-6.1.18-9.12.27-2.78-1.7-6.74,2.28-7.93,4.21-1.24,6.91,1.88,8.56,5.25,2.13,4.34,3.61,9,5.59,13.44s6.16,3.81,9.48,2.73C322.43,1028.71,319.84,1025.52,318.94,1023.25Zm-21.63-23.19c-6.25.28-5.3-4.36-5.71-8,.26-3.93-.58-8.35,5.8-7.89,5.08.36,9.3,1.82,9.48,7.53C307.1,997.83,302.81,999.82,297.31,1000.06Z"/><path class="cls-16" d="M269,981.59c-3.86-4.81-22.59-8.28-29.44-5-6.56,3.16-2.45,9.74-3.22,14.72-.62,3.86-.13,7.88-.13,11.83h.1c0,7.58,0,15.18,0,22.78,0,3.71,2.34,4.46,5.35,4.66,3.24.2,5.32-.91,5.48-4.44a24.51,24.51,0,0,0,.08-3.63c-.84-7.26.2-12.17,9.63-11.62,5.46.31,10.52-2.64,13.35-8.06C274,995.51,274.32,988.29,269,981.59Zm-16.49,21.2c-8.35.56-4.45-5.8-5.59-9.45,1.3-3.22-2.61-9.32,5.1-8.94,6,.31,9.7,2.91,9.59,9.45C261.44,999.82,258.17,1002.4,252.46,1002.79Z"/><path class="cls-17" d="M551,1031.45a22.91,22.91,0,0,1-9.78-1.72c-3.8-1.57-6.5-4.42-5.11-8.4,1.95-5.65,5.39-.75,8-.17,3.29.77,6.44,1.85,9.82.88a7.06,7.06,0,0,0,5.35-5.61c.58-2.85-1.22-4.66-3.33-5.94-2.83-1.74-5.92-3-8.82-4.66-9.74-5.37-12.87-14.07-8.22-22.71,3.85-7.2,17.1-10.42,25-6.2,3.09,1.67,4.81,4,3.62,7.38-1.57,4.37-4.22,1.32-6.63.66-4.37-1.17-9.67-3-11.94,2.45-2.34,5.67,2.78,7.93,6.93,9.89,5.23,2.46,10.76,4.49,13.41,10.21C574.79,1019.48,565.63,1031.43,551,1031.45Z"/><path class="cls-18" d="M443.84,1026.5c-.18,7.22-7.8,3.87-11.87,4-19.85.51-19.85.26-19.78-19.64,0-2.43,0-4.88,0-7.31,0-6.69.15-13.39,0-20.08-.15-5.48,2.21-7.6,7.69-7.29,6.38.33,12.77.07,19.17.12,2.46,0,4.89,0,5.08,3.59.2,3.83-1.94,4.67-5.08,4.64s-6.11.13-9.12-.13c-5.15-.44-6.87,1.74-6.87,6.87s1.62,7.42,6.81,6.91a31.69,31.69,0,0,1,4.57,0c2.89.16,6.4-.75,6.4,4.15s-3.64,3.65-6.42,4.11c-4.42.69-10.85-3-11.34,6.08-.37,6.87,1.17,9.94,8.84,9.71C436,1022.06,444,1018.07,443.84,1026.5Z"/><path class="cls-19" d="M485.65,1028.56c-10.93,7-28.67,1.67-33.26-10.5a37.54,37.54,0,0,1,.24-28.51,23.73,23.73,0,0,1,32-12.17c4,2,5.74,4.91,4.18,8.75-2.06,5.15-5.06.66-7.23-.16-11.88-4.52-19.68,2.45-19.52,17.7.17,15,7.79,21.13,20.41,16.71,2-.68,4.68-5,6.56-.3C490.33,1023.35,489.07,1026.39,485.65,1028.56Z"/><path class="cls-20" d="M825.73,1026.53c-.4,7.51-8.36,3.57-12.77,3.7-18.14.45-18.16.18-18.07-18.35,0-3,0-6.09,0-9.12,0-6.71.22-13.41-.07-20.1-.22-4.59,1.11-6.71,6.07-6.49,6.68.31,13.39.11,20.1.08,2.63,0,4.84.42,5.08,3.76.27,4-2.29,4.39-5.29,4.39-1.82,0-3.65,0-5.48,0-4.57.19-9.65-1.61-9.72,6.65-.07,7.86,4.28,7.26,9.3,7.11,1.81,0,3.64,0,5.47.17,2.32.2,2.85,1.79,2.81,3.83s-.46,3.73-2.8,3.91a37.8,37.8,0,0,1-7.29.11c-6.43-.71-7.36,2.67-7.42,8.17s1.34,8.21,7.11,7.48a2.2,2.2,0,0,1,.92,0C817.91,1023.24,826.16,1018.4,825.73,1026.53Z"/><path class="cls-14" d="M533.22,980.39c0,3.51-1.79,5.12-5.19,4.5-10.2-1.92-10.36,4.28-10,11.66.4,9.12.16,18.25.23,27.39,0,3.67-.38,6.58-5.28,6.5-4.47,0-5.83-2.26-5.81-6.24,0-10.66-.2-21.31,0-32,.11-5.07-.55-8.1-6.87-7.26-3,.42-8.12,1.72-8.12-4.28s4.74-4.27,8.06-4.44c4.26-.18,8.54,0,12.79,0,4.86,0,9.74.07,14.62,0C530.71,976.12,533.2,976.56,533.22,980.39Z"/><path class="cls-21" d="M788.38,980.67c-.16,3.27-2.08,4.46-4.71,4-9.83-1.61-10.8,3.78-10.32,11.62.54,9.06.09,18.2.16,27.3,0,3.91,0,7.35-5.57,7.09-5.17-.26-5.65-3.38-5.56-7.4.13-5.46,0-10.93,0-16.39h.05c0-3-.2-6.09,0-9.1.6-7.77.79-14.93-10.58-13.12-2.89.46-4.26-1.34-4.31-4.39-.06-3.49,2-4,4.68-4,10.32,0,20.63,0,31,0C786.21,976.25,788.6,976.68,788.38,980.67Z"/><path class="cls-22" d="M627.38,1025.24c.2,4-1.94,5.37-5.48,5.46l-2.74.06c-21,.63-21,.63-21.2-20.31-.07-9.41,0-18.82-.09-28.23-.08-4,1.06-6.27,5.59-6.21,4.33,0,5.87,2,5.76,6.14-.17,5.46-.06,10.93-.06,16.39h-.07v8.19c0,13.15,0,13.17,12.62,14.3C624.53,1021.29,627.18,1021.27,627.38,1025.24Z"/><path class="cls-23" d="M401,982.92c-.15,5.77,0,11.54,0,17.32h-.28c0,6.69.52,13.43-.1,20-.79,8.41-9.84,13.44-17.71,10.55-3-1.1-4.17-3.13-4.08-6.27.13-3.4,1.9-4,4.83-3.58,5.94.8,6.23-3.38,6.25-7.55,0-10,0-20.06-.06-30.09,0-3.82,0-7.22,5.48-7.31C400.59,975.94,401.07,978.8,401,982.92Z"/><path class="cls-24" d="M645.1,1025.51c0,4-1.77,5.41-5.55,5.32s-5.7-1.41-5.67-5.39c.1-7.6,0-15.21,0-22.81h0c0-7,.11-14,0-21-.09-3.76,1.22-5.55,5.19-5.64,4.13-.09,6.19,1.3,6.16,5.7Q645,1003.61,645.1,1025.51Z"/><path class="cls-25" d="M741.28,982.88c-.13,7,0,13.92,0,20.89h-.15c0,7-.16,13.92.08,20.88.12,4.31-1.67,6-5.83,6-4,0-5.3-2.08-5.28-5.7q0-21.32,0-42.67c0-4.38,1.65-6.65,6.55-6.34S741.35,979.35,741.28,982.88Z"/><path class="cls-26" d="M428.05,107.21c-3.14,8.93-11.45,8.86-18.67,10.72C415.26,113.75,421,109.4,428.05,107.21Z"/><path class="cls-27" d="M655.17,313.9c-15.35,9.07-29.51,17.47-43.73,25.79-21.23,12.39-42.58,24.59-63.7,37.16-4.59,2.75-8.26,3.49-13.27.79-36.05-19.52-72.3-38.65-108.32-58.2-4.06-2.21-9.39-2.1-12.26-6.52a.79.79,0,0,1,0-.73c.14-.24.47-.37.71-.53,3.11-3.59,7.24-5.47,11.55-7Q477.79,273.84,529.38,243c3-1.81,5.57-1.84,8.38-.14Z"/><path class="cls-27" d="M371.51,480.26a4.22,4.22,0,0,1-.36,2.2c-.42-.21-.86-.41-1.3-.59l-.38-.24C370.14,481.18,370.84,480.72,371.51,480.26Z"/><path class="cls-27" d="M338,504.11a4.39,4.39,0,0,1-4.24-.46c.62-.33,1.24-.64,1.87-1C336.41,503.14,337.2,503.63,338,504.11Z"/><path class="cls-27" d="M710.34,483.17l-.11.07a3.35,3.35,0,0,1-.37.2c-.09-.22-.16-.45-.24-.71Z"/><path class="cls-27" d="M333.49,308.24q.79.3,1.59.66c-.39.14-.79.29-1.19.42A4.47,4.47,0,0,1,333.49,308.24Z"/><path class="cls-27" d="M730.77,310.63a11,11,0,0,1-1.72-.6c-.33-.17-.68-.31-1-.49.48-.5.93-1,1.37-1.56A5.89,5.89,0,0,1,730.77,310.63Z"/><path class="cls-27" d="M740.25,505.11c-.57-.53-1.15-1-1.75-1.53.45-.24.89-.48,1.35-.71.25-.13.53-.26.78-.41A3.55,3.55,0,0,1,740.25,505.11Z"/><path class="cls-28" d="M283.46,425.11c-5.44.23-9.1-2.18-10.92-7.34C278.53,416.72,281.8,419.73,283.46,425.11Z"/><path class="cls-29" d="M762,446.65c-1.51,5.57-4.85,8.43-10.87,7.28C753.13,449.06,756.56,446.35,762,446.65Z"/><path class="cls-3" d="M655.17,313.9c-15.35,9.07-29.51,17.47-43.73,25.79-21.23,12.39-42.58,24.59-63.7,37.16-4.59,2.75-8.26,3.49-13.27.79-36.05-19.52-72.3-38.65-108.32-58.2-4.06-2.21-9.39-2.1-12.26-6.52a.79.79,0,0,1,0-.73c.14-.24.47-.37.71-.53,4.22-1.74,8.55-3.31,11.55-7Q477.79,273.84,529.38,243c3-1.81,5.57-1.84,8.38-.14Z"/><path class="cls-30" d="M426.17,304.62c-2,5.43-5.72,7.93-11.55,7C417.73,308.07,421.86,306.19,426.17,304.62Z"/></svg>